# File created by Blade
# Date/Time:  Thu Jan 22 19:24:19 2015
# Frame Rate: 120.000 fps
#------------------------------------------------------
:FULLY-SPECIFIED
:DEGREES
3345
root -4.626950 33.241178 -5.965305 -1.711461 -25.620619 11.674496
RightUpLeg -10.156599 14.818683 -3.266838
RightLeg 22.015018 -0.000000 -0.000000
RightFoot -17.578692 2.041483 -7.838604
RightToeBase 4.927132 -0.000000 -0.000000
LeftUpLeg -107.135875 -26.594930 -7.675611
LeftLeg 115.080056 -0.000000 -0.000000
LeftFoot 12.293876 -6.248071 -15.133148
LeftToeBase 2.466393 -0.000000 -0.000000
Spine 5.513347 22.423116 -5.061707
RightShoulder 1.938472 1.801755 -18.827658
RightArm 47.355323 -30.261708 44.395647
RightForeArm 24.482027 -0.000000 42.392106
RightHand 11.661004 0.000000 40.801223
RightHandThumb1 -24.326973 -0.000000 -32.862282
LeftShoulder -22.793868 -1.217453 27.429329
LeftArm 18.772859 -28.970733 -38.661134
LeftForeArm 13.167822 -0.000000 4.717237
LeftHand 1.663371 -0.000000 -2.696581
LeftHandThumb1 -26.253704 0.000000 33.147579
Head -18.548267 20.438063 -17.152167
3346
root -4.635750 33.245114 -5.927325 -1.756074 -25.845297 11.690815
RightUpLeg -10.045321 15.068951 -3.268355
RightLeg 21.921273 -0.000000 -0.000000
RightFoot -17.505136 1.943201 -8.101713
RightToeBase 4.581062 -0.000000 -0.000000
LeftUpLeg -107.070690 -26.669451 -7.653770
LeftLeg 115.078507 -0.000000 -0.000000
LeftFoot 12.227249 -6.329275 -14.753637
LeftToeBase 2.210777 -0.000000 -0.000000
Spine 5.468697 22.625450 -5.059308
RightShoulder 1.857759 1.693518 -18.793062
RightArm 47.142291 -30.216480 44.487426
RightForeArm 24.367693 -0.000000 42.382612
RightHand 11.718495 -0.000000 40.799338
RightHandThumb1 -24.326973 -0.000000 -32.862282
LeftShoulder -22.888244 -1.157159 27.394658
LeftArm 18.708411 -28.992550 -38.619036
LeftForeArm 13.163060 0.000000 4.727612
LeftHand 1.587536 -0.000000 -2.631248
LeftHandThumb1 -26.253704 0.000000 33.147579
Head -18.453347 21.377207 -17.291719
3347
root -4.640287 33.249987 -5.891217 -1.786633 -26.073265 11.727418
RightUpLeg -9.973031 15.228302 -3.300339
RightLeg 21.839733 -0.000000 -0.000000
RightFoot -17.430783 1.920629 -8.405900
RightToeBase 4.192732 -0.000000 -0.000000
LeftUpLeg -107.031390 -26.749592 -7.600989
LeftLeg 115.038784 -0.000000 -0.000000
LeftFoot 12.288624 -6.360384 -14.956605
LeftToeBase 1.952521 -0.000000 -0.000000
Spine 5.407601 22.832933 -5.076423
RightShoulder 1.767019 1.595478 -18.778046
RightArm 46.892853 -30.147911 44.682229
RightForeArm 24.182792 -0.000000 42.375666
RightHand 11.783337 -0.000000 40.732120
RightHandThumb1 -24.326973 -0.000000 -32.862282
LeftShoulder -22.991426 -1.097130 27.352916
LeftArm 18.624781 -29.088232 -38.592040
LeftForeArm 13.099795 -0.000000 4.758485
LeftHand 1.695465 -0.000000 -2.643335
LeftHandThumb1 -26.253704 0.000000 33.147579
Head -18.356733 22.227579 -17.411845
3348
root -4.644128 33.254702 -5.850854 -1.829465 -26.324531 11.765860
RightUpLeg -9.890500 15.351505 -3.332338
RightLeg 21.768629 -0.000000 -0.000000
RightFoot -17.383015 1.940873 -8.771303
RightToeBase 3.728811 -0.000000 -0.000000
LeftUpLeg -106.976601 -26.822141 -7.563356
LeftLeg 115.006044 -0.000000 -0.000000
LeftFoot 12.274998 -6.439529 -14.861491
LeftToeBase 1.631736 -0.000000 -0.000000
Spine 5.332264 23.066671 -5.087573
RightShoulder 1.686212 1.443741 -18.758019
RightArm 46.655283 -30.064085 44.831839
RightForeArm 24.010541 -0.000000 42.376559
RightHand 11.817647 -0.000000 40.737133
RightHandThumb1 -24.326973 -0.000000 -32.862282
LeftShoulder -23.092782 -1.033334 27.322459
LeftArm 18.550946 -29.204109 -38.595517
LeftForeArm 13.104298 -0.000000 4.803920
LeftHand 1.604509 -0.000000 -2.503174
LeftHandThumb1 -26.253704 0.000000 33.147579
Head -18.209270 23.104961 -17.531454
3349
root -4.646346 33.261072 -5.815872 -1.825128 -26.602971 11.819450
RightUpLeg -9.886276 15.451076 -3.396923
RightLeg 21.701193 -0.000000 -0.000000
RightFoot -17.341339 2.036753 -9.043284
RightToeBase 3.559382 -0.000000 -0.000000
LeftUpLeg -106.957802 -26.888493 -7.540784
LeftLeg 114.944273 -0.000000 -0.000000
LeftFoot 12.307252 -6.431179 -14.942222
LeftToeBase 1.723658 -0.000000 -0.000000
Spine 5.189185 23.315069 -5.141197
RightShoulder 1.629380 1.273837 -18.730660
RightArm 46.405602 -29.968335 44.993485
RightForeArm 23.924338 0.000000 42.373626
RightHand 11.810265 0.000000 40.714158
RightHandThumb1 -24.326973 -0.000000 -32.862282
LeftShoulder -23.200733 -0.922378 27.259523
LeftArm 18.505309 -29.368986 -38.592976
LeftForeArm 13.074270 -0.000000 4.851965
LeftHand 1.617181 -0.000000 -2.349284
LeftHandThumb1 -26.253704 0.000000 33.147579
Head -18.057270 23.912100 -17.660877
